<?xml version="1.0" standalone="no"?>
<!DOCTYPE svg PUBLIC "-//W3C//DTD SVG 20010904//EN"
 "http://www.w3.org/TR/2001/REC-SVG-20010904/DTD/svg10.dtd">
<svg version="1.0" xmlns="http://www.w3.org/2000/svg"
 width="260.000000pt" height="260.000000pt" viewBox="0 0 260.000000 260.000000"
 preserveAspectRatio="xMidYMid meet">
<metadata>
Created by potrace 1.14, written by Peter Selinger 2001-2017
</metadata>
<g transform="translate(0.000000,260.000000) scale(0.100000,-0.100000)"
fill="#000000" stroke="none">
<path d="M0 1910 l0 -690 70 0 70 0 0 -155 0 -155 775 0 775 0 0 780 0 780
-160 0 -160 0 0 65 0 65 -685 0 -685 0 0 -690z m1600 -225 l0 -675 -685 0
-685 0 0 675 0 675 685 0 685 0 0 -675z"/>
<path d="M1960 1690 l0 -780 320 0 320 0 0 50 0 50 -275 0 -275 0 0 675 0 675
275 0 275 0 0 55 0 55 -320 0 -320 0 0 -780z"/>
<path d="M140 320 l0 -320 45 0 45 0 0 275 0 275 685 0 685 0 0 -275 0 -275
45 0 45 0 0 320 0 320 -775 0 -775 0 0 -320z"/>
<path d="M1960 320 l0 -320 45 0 45 0 0 275 0 275 275 0 275 0 0 45 0 45 -320
0 -320 0 0 -320z"/>
</g>
</svg>
